<svg width="60" height="60" viewBox="0 0 60 60" fill="none" xmlns="http://www.w3.org/2000/svg">
<g id="Facebook">
<path id="Oval 10" opacity="0.1" fill-rule="evenodd" clip-rule="evenodd" d="M30 58C45.464 58 58 45.464 58 30C58 14.536 45.464 2 30 2C14.536 2 2 14.536 2 30C2 45.464 14.536 58 30 58Z" stroke="white" stroke-width="2.37568"/>
<path id="Shape" d="M32.549 22.8334H35.1224C35.3591 22.8334 35.5513 22.6523 35.5513 22.4292V20.0043C35.5513 19.7812 35.3591 19.6001 35.1224 19.6001H32.549C29.9481 19.6001 27.8311 21.5942 27.8311 24.0458V26.8749H24.8288C24.592 26.8749 24.3999 27.056 24.3999 27.2791V29.704C24.3999 29.9271 24.592 30.1082 24.8288 30.1082H27.8311V38.5955C27.8311 38.8186 28.0232 38.9996 28.26 38.9996H30.8334C31.0701 38.9996 31.2623 38.8186 31.2623 38.5955V30.1082H34.2646C34.449 30.1082 34.6129 29.9966 34.672 29.8317L35.5299 27.4068C35.5736 27.2839 35.5513 27.1481 35.4707 27.0422C35.3892 26.9372 35.2605 26.8749 35.1224 26.8749H31.2623V24.0458C31.2623 23.3773 31.8396 22.8334 32.549 22.8334Z" fill="white"/>
</g>
</svg>
