<svg width="134" height="113" viewBox="0 0 134 113" fill="none" xmlns="http://www.w3.org/2000/svg">
<g id="Group 211">
<path id="Ellipse" d="M103.798 90.0179C103.343 90.0964 102.911 89.7917 102.833 89.3372C102.754 88.8827 103.059 88.4506 103.513 88.3721L103.798 90.0179ZM27.2449 62.3948L26.683 63.0126L27.2449 62.3948ZM41.6857 72.5115C41.7868 72.9615 41.504 73.4083 41.054 73.5094L33.7209 75.1576C33.2709 75.2587 32.8242 74.9759 32.723 74.5259C32.6219 74.0759 32.9047 73.6291 33.3547 73.528L39.873 72.063L38.408 65.5447C38.3068 65.0947 38.5897 64.6479 39.0396 64.5468C39.4896 64.4456 39.9364 64.7284 40.0376 65.1784L41.6857 72.5115ZM120.538 77.7169C123.84 70.6339 121.164 61.331 113.663 51.8794C106.197 42.4716 94.1088 33.1424 79.1525 26.1682L79.8584 24.6545C94.9987 31.7145 107.313 41.1904 114.972 50.8412C122.596 60.4482 125.766 70.4575 122.051 78.4227L120.538 77.7169ZM79.1525 26.1682C64.1963 19.194 49.2792 15.9302 37.2734 16.2582C25.2118 16.5878 16.3651 20.5173 13.0622 27.6003L11.5485 26.8944C15.2627 18.9292 24.9678 14.9236 37.2278 14.5886C49.5437 14.2521 64.7181 17.5944 79.8584 24.6545L79.1525 26.1682ZM103.513 88.3721C111.9 86.9233 117.934 83.2992 120.538 77.7169L122.051 78.4227C119.122 84.7038 112.456 88.5221 103.798 90.0179L103.513 88.3721ZM13.0622 27.6003C10.9178 32.1991 11.2865 37.7201 13.879 43.6448C16.4719 49.5702 21.2609 55.8227 27.8068 61.7771L26.683 63.0126C20.0214 56.9531 15.0629 50.5167 12.3489 44.3143C9.63453 38.1111 9.13723 32.0653 11.5485 26.8944L13.0622 27.6003ZM27.8068 61.7771C31.7246 65.3408 36.2627 68.7894 41.3176 71.989L40.4242 73.4003C35.294 70.1529 30.6777 66.6463 26.683 63.0126L27.8068 61.7771Z" fill="url(#paint0_linear_96_388)"/>
<path id="Star" d="M103.745 112.83C103.745 99.9154 93.2757 89.4465 80.3616 89.4465C93.2757 89.4465 103.745 78.9775 103.745 66.0633C103.745 78.9775 114.214 89.4465 127.128 89.4465C114.214 89.4465 103.745 99.9154 103.745 112.83Z" fill="url(#paint1_radial_96_388)"/>
</g>
<defs>
<linearGradient id="paint0_linear_96_388" x1="22.548" y1="66.8985" x2="106.894" y2="7.60557" gradientUnits="userSpaceOnUse">
<stop stop-color="#987A7A" stop-opacity="0.4"/>
<stop offset="0.21784" stop-color="#FFA5A5"/>
<stop offset="0.578937" stop-color="#F6BCBC" stop-opacity="0.44"/>
<stop offset="1" stop-color="white" stop-opacity="0"/>
</linearGradient>
<radialGradient id="paint1_radial_96_388" cx="0" cy="0" r="1" gradientUnits="userSpaceOnUse" gradientTransform="translate(103.745 89.4465) rotate(-90) scale(27.0368)">
<stop stop-color="#FDB6B6"/>
<stop offset="1" stop-color="#670101"/>
</radialGradient>
</defs>
</svg>
