<svg width="18" height="16" viewBox="0 0 18 16" fill="none" xmlns="http://www.w3.org/2000/svg">
<g id="Message">
<path id="Message_2" fill-rule="evenodd" clip-rule="evenodd" d="M13.1162 0.5C14.2337 0.5 15.3087 0.941667 16.0995 1.73417C16.8912 2.525 17.3337 3.59167 17.3337 4.70833V11.2917C17.3337 13.6167 15.442 15.5 13.1162 15.5H4.88366C2.55783 15.5 0.666992 13.6167 0.666992 11.2917V4.70833C0.666992 2.38333 2.54949 0.5 4.88366 0.5H13.1162ZM14.442 5.95007L14.5087 5.8834C14.7078 5.64174 14.7078 5.29174 14.4995 5.05007C14.3837 4.9259 14.2245 4.85007 14.0587 4.8334C13.8837 4.82424 13.717 4.8834 13.5912 5.00007L9.83368 8.00007C9.35035 8.4009 8.65785 8.4009 8.16702 8.00007L4.41701 5.00007C4.15785 4.8084 3.79952 4.8334 3.58368 5.0584C3.35868 5.2834 3.33368 5.64174 3.52451 5.89174L3.63368 6.00007L7.42535 8.9584C7.89201 9.32507 8.45785 9.52507 9.05035 9.52507C9.64118 9.52507 10.217 9.32507 10.6828 8.9584L14.442 5.95007Z" fill="#0C111A"/>
</g>
</svg>
