<svg width="60" height="60" viewBox="0 0 60 60" fill="none" xmlns="http://www.w3.org/2000/svg">
<g id="Twitter">
<path id="Oval 10 Copy" opacity="0.1" fill-rule="evenodd" clip-rule="evenodd" d="M30 58C45.464 58 58 45.464 58 30C58 14.536 45.464 2 30 2C14.536 2 2 14.536 2 30C2 45.464 14.536 58 30 58Z" stroke="white" stroke-width="2.37568"/>
<path id="instagram icon" d="M38.7564 25.2292C38.7709 25.7528 38.7818 26.2183 38.7891 26.6256C38.7964 27.0328 38.8 27.891 38.8 29.2001C38.8 30.5092 38.7964 31.3674 38.7891 31.7746C38.7818 32.1819 38.7709 32.6401 38.7564 33.1492C38.7273 33.6728 38.6727 34.1165 38.5927 34.4801C38.5127 34.8437 38.4146 35.1783 38.2982 35.4837C38.1818 35.8037 38.0364 36.1019 37.8618 36.3783C37.6873 36.6546 37.4618 36.9237 37.1855 37.1856C36.9236 37.4619 36.6545 37.6874 36.3782 37.8619C36.1018 38.0365 35.8036 38.1819 35.4836 38.2983C35.1782 38.4146 34.8436 38.5128 34.48 38.5928C34.1164 38.6728 33.68 38.7274 33.1709 38.7565C32.6473 38.771 32.1818 38.7819 31.7746 38.7892C31.3673 38.7965 30.5091 38.8001 29.2 38.8001C27.8909 38.8001 27.0327 38.7965 26.6255 38.7892C26.2182 38.7819 25.76 38.771 25.2509 38.7565C24.7273 38.7274 24.2836 38.6728 23.92 38.5928C23.5564 38.5128 23.2218 38.4146 22.9164 38.2983C22.5964 38.1819 22.2982 38.0365 22.0218 37.8619C21.7455 37.6874 21.4764 37.4619 21.2146 37.1856C20.9382 36.9237 20.7127 36.6546 20.5382 36.3783C20.3636 36.1019 20.2182 35.8037 20.1018 35.4837C19.9855 35.1783 19.8873 34.8437 19.8073 34.4801C19.7273 34.1165 19.6727 33.6801 19.6436 33.171C19.6291 32.6474 19.6182 32.1819 19.6109 31.7746C19.6036 31.3674 19.6 30.5092 19.6 29.2001C19.6 27.891 19.6036 27.0328 19.6109 26.6256C19.6182 26.2183 19.6291 25.7601 19.6436 25.251C19.6727 24.7274 19.7273 24.2837 19.8073 23.9201C19.8873 23.5565 19.9855 23.2219 20.1018 22.9165C20.2182 22.5965 20.3636 22.2983 20.5382 22.0219C20.7127 21.7456 20.9382 21.4765 21.2146 21.2146C21.4764 20.9383 21.7455 20.7128 22.0218 20.5383C22.2982 20.3637 22.5964 20.2183 22.9164 20.1019C23.2218 19.9856 23.5564 19.8874 23.92 19.8074C24.2836 19.7274 24.72 19.6728 25.2291 19.6437C25.7527 19.6292 26.2182 19.6183 26.6255 19.611C27.0327 19.6037 27.8909 19.6001 29.2 19.6001C30.5091 19.6001 31.3673 19.6037 31.7746 19.611C32.1818 19.6183 32.64 19.6292 33.1491 19.6437C33.6727 19.6728 34.1164 19.7274 34.48 19.8074C34.8436 19.8874 35.1782 19.9856 35.4836 20.1019C35.8036 20.2183 36.1018 20.3637 36.3782 20.5383C36.6545 20.7128 36.9236 20.9383 37.1855 21.2146C37.4618 21.4765 37.6873 21.7456 37.8618 22.0219C38.0364 22.2983 38.1818 22.5965 38.2982 22.9165C38.4146 23.2219 38.5127 23.5565 38.5927 23.9201C38.6727 24.2837 38.7273 24.7201 38.7564 25.2292ZM37.0109 33.0837C37.04 32.5746 37.0582 32.1201 37.0655 31.7201C37.0727 31.3201 37.0764 30.4801 37.0764 29.2001C37.0764 27.9201 37.0727 27.0801 37.0655 26.6801C37.0582 26.2801 37.04 25.8256 37.0109 25.3165C36.9964 24.851 36.9564 24.4801 36.8909 24.2037C36.8255 23.9274 36.7564 23.7019 36.6836 23.5274C36.5964 23.3092 36.4982 23.1128 36.3891 22.9383C36.28 22.7637 36.1382 22.5965 35.9636 22.4365C35.8036 22.2619 35.6364 22.1201 35.4618 22.011C35.2873 21.9019 35.0909 21.8037 34.8727 21.7165C34.6982 21.6437 34.4727 21.5746 34.1964 21.5092C33.92 21.4437 33.5491 21.4037 33.0836 21.3892C32.5745 21.3601 32.12 21.3419 31.72 21.3346C31.32 21.3274 30.48 21.3237 29.2 21.3237C27.92 21.3237 27.08 21.3274 26.68 21.3346C26.28 21.3419 25.8255 21.3601 25.3164 21.3892C24.8509 21.4037 24.48 21.4437 24.2036 21.5092C23.9273 21.5746 23.7018 21.6437 23.5273 21.7165C23.3091 21.8037 23.1127 21.9019 22.9382 22.011C22.7636 22.1201 22.5964 22.2619 22.4364 22.4365C22.2618 22.5965 22.12 22.7637 22.0109 22.9383C21.9018 23.1128 21.8036 23.3092 21.7164 23.5274C21.6436 23.7019 21.5746 23.9274 21.5091 24.2037C21.4436 24.4801 21.4036 24.851 21.3891 25.3165C21.36 25.8256 21.3418 26.2801 21.3346 26.6801C21.3273 27.0801 21.3236 27.9201 21.3236 29.2001C21.3236 30.4801 21.3273 31.3201 21.3346 31.7201C21.3418 32.1201 21.36 32.5746 21.3891 33.0837C21.4036 33.5492 21.4436 33.9201 21.5091 34.1965C21.5746 34.4728 21.6436 34.6983 21.7164 34.8728C21.8036 35.091 21.9018 35.2874 22.0109 35.4619C22.12 35.6365 22.2618 35.8037 22.4364 35.9637C22.5964 36.1383 22.7636 36.2801 22.9382 36.3892C23.1127 36.4983 23.3091 36.5965 23.5273 36.6837C23.7018 36.7565 23.9273 36.8256 24.2036 36.891C24.48 36.9565 24.8509 36.9965 25.3164 37.011C25.8255 37.0401 26.28 37.0583 26.68 37.0655C27.08 37.0728 27.92 37.0765 29.2 37.0765C30.48 37.0765 31.32 37.0728 31.72 37.0655C32.12 37.0583 32.5745 37.0401 33.0836 37.011C33.5491 36.9965 33.92 36.9565 34.1964 36.891C34.4727 36.8256 34.6982 36.7565 34.8727 36.6837C35.0909 36.5965 35.2873 36.4983 35.4618 36.3892C35.6364 36.2801 35.8036 36.1383 35.9636 35.9637C36.1382 35.8037 36.28 35.6365 36.3891 35.4619C36.4982 35.2874 36.5964 35.091 36.6836 34.8728C36.7564 34.6983 36.8255 34.4728 36.8909 34.1965C36.9564 33.9201 36.9964 33.5492 37.0109 33.0837ZM29.2 24.2692C29.8836 24.2692 30.5236 24.4001 31.12 24.6619C31.7164 24.9092 32.24 25.2583 32.6909 25.7092C33.1418 26.1601 33.4909 26.6837 33.7382 27.2801C34 27.8765 34.1309 28.5165 34.1309 29.2001C34.1309 29.8837 34 30.5237 33.7382 31.1201C33.4909 31.7165 33.1418 32.2401 32.6909 32.691C32.24 33.1419 31.7164 33.491 31.12 33.7383C30.5236 34.0001 29.8836 34.131 29.2 34.131C28.5164 34.131 27.8764 34.0001 27.28 33.7383C26.6836 33.491 26.16 33.1419 25.7091 32.691C25.2582 32.2401 24.9091 31.7165 24.6618 31.1201C24.4 30.5237 24.2691 29.8837 24.2691 29.2001C24.2691 28.5165 24.4 27.8765 24.6618 27.2801C24.9091 26.6837 25.2582 26.1601 25.7091 25.7092C26.16 25.2583 26.6836 24.9092 27.28 24.6619C27.8764 24.4001 28.5164 24.2692 29.2 24.2692ZM29.2 32.4074C30.0873 32.4074 30.8436 32.0946 31.4691 31.4692C32.0946 30.8437 32.4073 30.0874 32.4073 29.2001C32.4073 28.3128 32.0946 27.5565 31.4691 26.931C30.8436 26.3055 30.0873 25.9928 29.2 25.9928C28.3127 25.9928 27.5564 26.3055 26.9309 26.931C26.3055 27.5565 25.9927 28.3128 25.9927 29.2001C25.9927 30.0874 26.3055 30.8437 26.9309 31.4692C27.5564 32.0946 28.3127 32.4074 29.2 32.4074ZM35.44 23.811C35.5127 24.1165 35.4655 24.4037 35.2982 24.6728C35.1309 24.9419 34.8946 25.1128 34.5891 25.1856C34.2836 25.2583 33.9964 25.211 33.7273 25.0437C33.4582 24.8765 33.2873 24.6401 33.2145 24.3346C33.1418 24.0292 33.1891 23.7419 33.3564 23.4728C33.5236 23.2037 33.76 23.0328 34.0655 22.9601C34.3709 22.8728 34.6582 22.9165 34.9273 23.091C35.1964 23.2656 35.3673 23.5056 35.44 23.811Z" fill="white"/>
</g>
</svg>
