<svg width="60" height="60" viewBox="0 0 60 60" fill="none" xmlns="http://www.w3.org/2000/svg">
<g id="Twitter">
<path id="Oval 10 Copy" opacity="0.1" fill-rule="evenodd" clip-rule="evenodd" d="M30 58C45.464 58 58 45.464 58 30C58 14.536 45.464 2 30 2C14.536 2 2 14.536 2 30C2 45.464 14.536 58 30 58Z" stroke="white" stroke-width="2.37568"/>
<path id="Shape" d="M39.1523 24.8233C39.0224 24.6764 38.8129 24.6395 38.6411 24.7301C38.5342 24.7864 38.3333 24.8602 38.0948 24.9332C38.3957 24.5217 38.6377 24.0609 38.7445 23.6467C38.7907 23.4682 38.7232 23.28 38.5761 23.1736C38.429 23.0681 38.2333 23.0681 38.0862 23.1736C37.8545 23.3398 36.7363 23.8393 36.0292 24.0011C34.4313 22.5615 32.5718 22.4121 30.6388 23.5728C29.0674 24.5164 28.7254 26.4352 28.7921 27.6047C25.1953 27.2486 22.9597 25.2946 21.7012 23.6775C21.6131 23.564 21.4712 23.5042 21.3378 23.513C21.1976 23.5236 21.0711 23.6036 20.9993 23.7276C20.4042 24.7609 20.2392 25.9032 20.5239 27.0314C20.6795 27.647 20.9514 28.1895 21.2669 28.6292C21.1155 28.5527 20.9694 28.4569 20.8317 28.3425C20.7052 28.2353 20.5282 28.215 20.3786 28.2863C20.2298 28.3592 20.1349 28.514 20.1349 28.6837C20.1349 30.621 21.313 31.9137 22.4134 32.589C22.2355 32.567 22.05 32.5266 21.8628 32.4677C21.702 32.4176 21.5276 32.4677 21.4165 32.5978C21.3053 32.7271 21.2788 32.9118 21.3481 33.0692C21.9662 34.4753 23.1375 35.4426 24.5866 35.7935C23.3213 36.5576 21.6277 36.9323 20.0768 36.7485C19.8759 36.7194 19.6844 36.8505 19.6211 37.0492C19.5578 37.248 19.6408 37.466 19.8177 37.568C22.1705 38.9267 24.2977 39.4121 26.1358 39.4121C28.8109 39.4121 30.8756 38.385 32.1324 37.5258C35.5205 35.2131 37.6322 31.0607 37.3381 27.3453C37.881 26.9329 38.6932 26.1714 39.1968 25.3527C39.3011 25.1874 39.2823 24.9693 39.1523 24.8233Z" fill="white"/>
</g>
</svg>
